STARTFONT 2.1
FONT -sun-chevara-medium-r-normal--20-200-75-75-p-175-adobe-fontspecific
SIZE 20 75 75
FONTBOUNDINGBOX 43 28 -6 -6

STARTPROPERTIES 28
FOUNDRY "sun"
FAMILY_NAME "chevara"
WEIGHT_NAME "medium"
SLANT "r"
SETWIDTH_NAME "normal"
ADD_STYLE_NAME ""
PIXEL_SIZE 21
POINT_SIZE 200
RESOLUTION_X 75
RESOLUTION_Y 75
SPACING "p"
AVERAGE_WIDTH 175
CHARSET_REGISTRY "adobe"
CHARSET_ENCODING "fontspecific"
COPYRIGHT "© 1999 Sun Microsystems, Inc."
RAW_PIXELSIZE 1000
RAW_POINTSIZE 964
RAW_ASCENT 1047
RAW_DESCENT 285
RAW_AVERAGE_WIDTH 8445
FACE_NAME "ChevaraNormal"
_XMBDFED_INFO "Edited with xmbdfed 2.4."
WEIGHT 10
X_HEIGHT -2
QUAD_WIDTH 18
DEFAULT_CHAR 4
FONT_DESCENT 6
FONT_ASCENT 22
ENDPROPERTIES

CHARS 195

STARTCHAR char32
ENCODING 32
SWIDTH 3 0
DWIDTH 11 0
BBX 0 0 0 0
BITMAP
ENDCHAR

STARTCHAR char33
ENCODING 33
SWIDTH 34 0
DWIDTH 8 0
BBX 5 15 3 0
BITMAP
70
F8
F8
98
78
78
50
30
30
10
00
70
F8
B8
70
ENDCHAR

STARTCHAR char34
ENCODING 34
SWIDTH 3 0
DWIDTH 11 0
BBX 8 6 3 9
BITMAP
E7
EB
AD
63
43
86
ENDCHAR

STARTCHAR char35
ENCODING 35
SWIDTH 8 0
DWIDTH 12 0
BBX 10 16 1 0
BITMAP
1980
1980
1100
1100
FF80
FFC0
3300
3300
3300
2200
FF80
FF80
2200
6600
6600
6600
ENDCHAR

STARTCHAR char36
ENCODING 36
SWIDTH 11 0
DWIDTH 23 0
BBX 18 20 5 -3
BITMAP
009000
009000
0FF080
309B80
509780
709180
FC9180
BFF880
DFFF00
47FF80
3890C0
47FFC0
609EC0
7091C0
589140
76D180
61BF00
009000
009000
009000
ENDCHAR

STARTCHAR char37
ENCODING 37
SWIDTH 6 0
DWIDTH 32 0
BBX 27 15 6 0
BITMAP
1F002000
71806000
51C04000
F1C08000
F1C10000
F1C30F00
B1C23980
514471C0
738C71A0
1F085160
001071E0
002071A0
00605160
004039C0
00801F80
ENDCHAR

STARTCHAR char38
ENCODING 38
SWIDTH 11 0
DWIDTH 23 0
BBX 19 15 5 0
BITMAP
03E000
071800
0B0800
1F8800
0F8800
0FD000
05E7E0
0EF3C0
313300
71FA00
F8BE00
B87C00
5C4600
7EFF00
3F1FE0
ENDCHAR

STARTCHAR char39
ENCODING 39
SWIDTH 25 0
DWIDTH 6 0
BBX 4 6 2 9
BITMAP
60
C0
A0
F0
B0
60
ENDCHAR

STARTCHAR char40
ENCODING 40
SWIDTH 43 0
DWIDTH 10 0
BBX 8 15 3 0
BITMAP
06
1C
2C
78
78
F8
F8
98
F8
F8
78
58
2C
1C
0E
ENDCHAR

STARTCHAR char41
ENCODING 41
SWIDTH 43 0
DWIDTH 10 0
BBX 7 15 2 0
BITMAP
C0
70
38
3C
3C
3E
3E
26
3E
3E
36
3C
28
70
60
ENDCHAR

STARTCHAR char42
ENCODING 42
SWIDTH 34 0
DWIDTH 8 0
BBX 6 6 2 9
BITMAP
20
20
AC
70
50
48
ENDCHAR

STARTCHAR char43
ENCODING 43
SWIDTH 20 0
DWIDTH 15 0
BBX 13 12 3 0
BITMAP
0200
0200
0200
0200
0200
FFF8
0200
0200
0200
0200
0200
0200
ENDCHAR

STARTCHAR char44
ENCODING 44
SWIDTH 30 0
DWIDTH 7 0
BBX 4 7 2 -3
BITMAP
60
D0
F0
D0
30
60
40
ENDCHAR

STARTCHAR char45
ENCODING 45
SWIDTH 3 0
DWIDTH 11 0
BBX 9 1 2 6
BITMAP
FF80
ENDCHAR

STARTCHAR char46
ENCODING 46
SWIDTH 30 0
DWIDTH 7 0
BBX 4 4 2 0
BITMAP
70
F0
F0
F0
ENDCHAR

STARTCHAR char47
ENCODING 47
SWIDTH 12 0
DWIDTH 13 0
BBX 12 15 2 0
BITMAP
0010
0020
0020
0040
0080
0100
0100
0200
0400
0800
0800
1000
2000
4000
8000
ENDCHAR

STARTCHAR char48
ENCODING 48
SWIDTH 3 0
DWIDTH 21 0
BBX 17 15 5 0
BITMAP
07E000
1E7800
242400
7C3E00
7C2F00
FC3F80
FC3F80
FC2180
8C3F80
FC3F80
BC3F00
5C3B00
242600
1E3C00
07F000
ENDCHAR

STARTCHAR char49
ENCODING 49
SWIDTH 16 0
DWIDTH 14 0
BBX 12 16 3 0
BITMAP
0080
0180
0780
F980
1780
1F80
1F80
1F80
1F80
1180
1F80
1F80
1F80
1180
1F80
FFF0
ENDCHAR

STARTCHAR char50
ENCODING 50
SWIDTH 38 0
DWIDTH 19 0
BBX 15 15 4 0
BITMAP
0FF0
30FC
407C
B846
CC3E
FC7E
4C6C
3898
01E0
0E02
1FFA
3FFE
4006
7FFE
FFFE
ENDCHAR

STARTCHAR char51
ENCODING 51
SWIDTH 42 0
DWIDTH 20 0
BBX 16 15 4 0
BITMAP
1FF0
703C
5C26
EC3E
7C3E
383C
0078
07D8
0026
783E
FC3F
FC3B
9C26
703C
1FF8
ENDCHAR

STARTCHAR char52
ENCODING 52
SWIDTH 42 0
DWIDTH 20 0
BBX 16 15 4 0
BITMAP
0018
0038
0058
00F8
03F8
0DF8
19F8
3118
61F8
41F8
FFFF
00F8
0098
00F8
0FFF
ENDCHAR

STARTCHAR char53
ENCODING 53
SWIDTH 38 0
DWIDTH 19 0
BBX 15 15 4 0
BITMAP
3FFE
3FEC
7F98
4070
7FC0
47C0
5870
607C
0046
707E
F83E
F82E
9836
707C
1FF0
ENDCHAR

STARTCHAR char54
ENCODING 54
SWIDTH 42 0
DWIDTH 20 0
BBX 16 15 5 0
BITMAP
0FF0
3E7C
2464
7C5C
7C38
FC18
FFF8
FC3C
8C26
FC3F
BC3F
5C3B
2426
1C3C
07F0
ENDCHAR

STARTCHAR char55
ENCODING 55
SWIDTH 33 0
DWIDTH 18 0
BBX 16 15 4 0
BITMAP
7FFF
7FFE
400C
7FFC
7FF8
8010
8030
0060
00E0
01C0
03C0
06C0
09C0
1F80
1F80
ENDCHAR

STARTCHAR char56
ENCODING 56
SWIDTH 42 0
DWIDTH 20 0
BBX 16 15 5 0
BITMAP
0FF0
300C
5006
F802
FF06
BFC4
5FF8
303C
2FFE
C1FF
806F
8017
800A
600C
1FF8
ENDCHAR

STARTCHAR char57
ENCODING 57
SWIDTH 42 0
DWIDTH 20 0
BBX 17 15 4 0
BITMAP
07F000
1E3800
6C2C00
7C1E00
FC1F00
FC1F00
DC1F80
6C1F80
1E7180
079F00
1C1F00
3E1B00
221600
3E3C00
0FF000
ENDCHAR

STARTCHAR char58
ENCODING 58
SWIDTH 34 0
DWIDTH 8 0
BBX 4 11 4 0
BITMAP
60
F0
B0
F0
60
00
00
E0
F0
90
70
ENDCHAR

STARTCHAR char59
ENCODING 59
SWIDTH 34 0
DWIDTH 8 0
BBX 5 14 3 -3
BITMAP
20
F8
88
F8
30
00
00
70
F8
98
68
10
30
40
ENDCHAR

STARTCHAR char60
ENCODING 60
SWIDTH 16 0
DWIDTH 14 0
BBX 11 11 1 0
BITMAP
0020
00E0
0380
1E00
7000
C000
E000
3C00
0700
01C0
0060
ENDCHAR

STARTCHAR char61
ENCODING 61
SWIDTH 20 0
DWIDTH 15 0
BBX 13 4 3 4
BITMAP
FFF8
0000
0000
FFF8
ENDCHAR

STARTCHAR char62
ENCODING 62
SWIDTH 16 0
DWIDTH 14 0
BBX 11 11 1 0
BITMAP
8000
E000
3800
0E00
0380
00E0
01C0
0700
1C00
7000
C000
ENDCHAR

STARTCHAR char63
ENCODING 63
SWIDTH 16 0
DWIDTH 14 0
BBX 11 15 3 0
BITMAP
3F00
4180
A1C0
F1E0
F3E0
7FE0
08C0
0FC0
0F00
0C00
0000
1C00
1E00
2600
1E00
ENDCHAR

STARTCHAR char64
ENCODING 64
SWIDTH 11 0
DWIDTH 23 0
BBX 15 15 3 0
BITMAP
07E0
1838
300C
6394
6672
CC62
D822
D822
D866
D844
4CC8
6770
3004
1818
07E0
ENDCHAR

STARTCHAR char65
ENCODING 65
SWIDTH 16 0
DWIDTH 24 0
BBX 21 15 4 0
BITMAP
002000
007000
007000
00F800
009800
01FC00
017E00
025E00
042300
043F00
0FFF80
081780
1808C0
380FE0
FF3FF8
ENDCHAR

STARTCHAR char66
ENCODING 66
SWIDTH 16 0
DWIDTH 24 0
BBX 19 15 5 0
BITMAP
FFFE00
1F0F80
1F0BC0
1304C0
1F07E0
1F06C0
1F09C0
13F700
1F0F80
1F07C0
1F07E0
130760
1F04E0
1F0FC0
7FFF80
ENDCHAR

STARTCHAR char67
ENCODING 67
SWIDTH 3 0
DWIDTH 21 0
BBX 17 15 5 0
BITMAP
07F080
1F0F80
360380
7E0180
7C0180
FC0080
FC0000
FC0000
8C0000
FC0000
7C0080
5C0100
260200
1F0C00
07F000
ENDCHAR

STARTCHAR char68
ENCODING 68
SWIDTH 20 0
DWIDTH 25 0
BBX 20 15 5 0
BITMAP
FFFE00
3F0780
1304C0
1F03E0
1F03E0
1F03F0
1F03F0
1F03F0
130230
1F03F0
1F03A0
1F03E0
130240
1F0780
FFFE00
ENDCHAR

STARTCHAR char69
ENCODING 69
SWIDTH 11 0
DWIDTH 23 0
BBX 19 15 4 0
BITMAP
7FFFE0
1F82E0
1F8160
1180E0
1F8460
1F8420
1F8C00
11FC00
1F8C00
1F8400
1F8020
1F8060
1180E0
1F83E0
FFFFE0
ENDCHAR

STARTCHAR char70
ENCODING 70
SWIDTH 3 0
DWIDTH 21 0
BBX 19 15 4 0
BITMAP
FFFFE0
1F82E0
1F8160
1F80E0
118460
1F8420
1F9C00
1FFC00
118C00
1F8400
1F8000
1F8000
118000
1F8000
FFF000
ENDCHAR

STARTCHAR char71
ENCODING 71
SWIDTH 20 0
DWIDTH 25 0
BBX 22 15 5 0
BITMAP
07F1C0
1B8EC0
3703C0
7E01C0
7E00C0
FC0040
FC0000
FC0000
8C3FFC
FC0460
7C07E0
5E07E0
2607E0
1F0C60
07F7E0
ENDCHAR

STARTCHAR char72
ENCODING 72
SWIDTH 28 0
DWIDTH 27 0
BBX 24 15 5 0
BITMAP
FFE7FF
1F81F8
1F81F8
118118
1F81F8
1F81F8
1F8118
11FFF8
1F81F8
1F81F8
1F81F8
1F81F8
118118
1F81F8
FFE7FF
ENDCHAR

STARTCHAR char73
ENCODING 73
SWIDTH 16 0
DWIDTH 14 0
BBX 12 15 3 0
BITMAP
FFF0
1F80
1180
1F80
1F80
1F80
1F80
1180
1F80
1F80
1F80
1F80
1180
1F80
FFF0
ENDCHAR

STARTCHAR char74
ENCODING 74
SWIDTH 29 0
DWIDTH 17 0
BBX 16 15 3 0
BITMAP
1FFF
01F8
0130
01F0
01F0
01F0
01D0
0130
01F0
31F0
79F0
F9F0
9930
71E0
3FC0
ENDCHAR

STARTCHAR char75
ENCODING 75
SWIDTH 28 0
DWIDTH 27 0
BBX 25 15 5 0
BITMAP
FFF7FF00
1F81B000
1F814000
11818000
1F830000
1F840000
1F8E0000
1FBF0000
11E18000
1F9FC000
1F8BC000
1F85E000
11823000
1F83F800
FFF7FF80
ENDCHAR

STARTCHAR char76
ENCODING 76
SWIDTH 7 0
DWIDTH 22 0
BBX 19 15 4 0
BITMAP
FFF000
1F8000
1F8000
118000
1F8000
1F8000
1F8000
118000
1F8000
1F8000
1F8020
1F80E0
1180E0
1F83E0
FFFFE0
ENDCHAR

STARTCHAR char77
ENCODING 77
SWIDTH 2 0
DWIDTH 31 0
BBX 27 15 6 0
BITMAP
FF003FE0
37807F00
17C05F00
18C0A300
17E0BF00
17E0BF00
13F13F00
12F93F00
111A2300
10FC3F00
108C3F00
10783F00
10282300
38303F00
FE11FFE0
ENDCHAR

STARTCHAR char78
ENCODING 78
SWIDTH 16 0
DWIDTH 24 0
BBX 22 15 4 0
BITMAP
7FC3FC
3FE070
08F060
0FF820
0BFC20
097E20
08BF20
084FA0
0831E0
080FE0
0805E0
0802E0
080120
1C00E0
FF0060
ENDCHAR

STARTCHAR char79
ENCODING 79
SWIDTH 20 0
DWIDTH 25 0
BBX 21 15 5 0
BITMAP
07FF00
1F87C0
3304E0
7E03F0
7E03F0
FE03F8
FE03F8
860218
FE03F8
7E03F8
5E03B0
2E03F0
130260
0F07C0
03FE00
ENDCHAR

STARTCHAR char80
ENCODING 80
SWIDTH 16 0
DWIDTH 24 0
BBX 20 15 5 0
BITMAP
FFFF00
3F85C0
1F03E0
130260
1F03F0
1F03E0
1F0360
1304C0
1FFF00
1F0000
1F0000
1F0000
130000
1F0000
FFE000
ENDCHAR

STARTCHAR char81
ENCODING 81
SWIDTH 20 0
DWIDTH 25 0
BBX 21 17 5 -2
BITMAP
07FF00
1F8FC0
3304E0
7F03F0
7E03F0
FE03F8
FE03F8
FE0218
8603F8
FE0BF8
5E3DF0
2E57B0
330868
0F07C8
03FFB0
000130
0001E0
ENDCHAR

STARTCHAR char82
ENCODING 82
SWIDTH 16 0
DWIDTH 24 0
BBX 20 15 5 0
BITMAP
FFFF00
2F0FC0
1F0BE0
130460
1F07E0
1F07E0
1F1CC0
1FFF80
132700
1F3F00
1F1F00
1F1780
130980
1F0FC0
FFE7F0
ENDCHAR

STARTCHAR char83
ENCODING 83
SWIDTH 11 0
DWIDTH 23 0
BBX 18 15 5 0
BITMAP
0FE080
301D80
600380
E00380
FC0080
BFE080
FFFE00
47FF80
3801C0
47FFC0
601DC0
7002C0
580140
770180
60FF00
ENDCHAR

STARTCHAR char84
ENCODING 84
SWIDTH 7 0
DWIDTH 22 0
BBX 19 15 4 0
BITMAP
FFFFE0
F9F160
B1F0E0
E13060
C1F060
C1F020
81F020
013000
01F000
01F000
01F000
01F000
013000
01F000
0FFF00
ENDCHAR

STARTCHAR char85
ENCODING 85
SWIDTH 16 0
DWIDTH 24 0
BBX 21 15 4 0
BITMAP
FFF3F8
1780E0
1F80C0
118040
1F8040
1F8040
1F8040
118040
1F8040
1F8040
1F8040
118040
0F8080
078380
01FC00
ENDCHAR

STARTCHAR char86
ENCODING 86
SWIDTH 16 0
DWIDTH 24 0
BBX 21 16 4 -1
BITMAP
FFF7F8
3F81F0
1980A0
17C0C0
0FC080
07E080
05E080
02F100
011A00
01FA00
00FC00
008800
007800
004800
003000
002000
ENDCHAR

STARTCHAR char87
ENCODING 87
SWIDTH 15 0
DWIDTH 34 0
BBX 31 16 6 -1
BITMAP
FFCFFDFE
3F87F078
1782F050
09811860
0FC3F840
07C2FC40
05E2BC40
02644680
03F47E80
01182300
01F03F00
00F01E00
00901200
00600C00
00200C00
00000400
ENDCHAR

STARTCHAR char88
ENCODING 88
SWIDTH 16 0
DWIDTH 24 0
BBX 22 15 4 0
BITMAP
FFF7FC
37C1E0
0FC180
086100
07F200
02FC00
017C00
008C00
007E00
00BF00
012F80
0217C0
0408E0
1E07F0
FFDFFC
ENDCHAR

STARTCHAR char89
ENCODING 89
SWIDTH 16 0
DWIDTH 24 0
BBX 21 15 4 0
BITMAP
FFF3F8
3F80F0
1780C0
08C0C0
07E180
05F100
02F200
011A00
01FC00
00FC00
00FC00
00FC00
008C00
00FC00
07FF80
ENDCHAR

STARTCHAR char90
ENCODING 90
SWIDTH 42 0
DWIDTH 20 0
BBX 16 15 4 0
BITMAP
FFFF
F87F
B076
E08C
C1FC
83D8
03B0
07E0
0860
1FC1
1D83
3F85
4309
FE1F
FFFF
ENDCHAR

STARTCHAR char91
ENCODING 91
SWIDTH 3 0
DWIDTH 11 0
BBX 7 15 5 0
BITMAP
FE
F0
90
F0
F0
F0
F0
90
F0
F0
F0
F0
90
F0
FE
ENDCHAR

STARTCHAR char92
ENCODING 92
SWIDTH 25 0
DWIDTH 6 0
BBX 6 15 0 0
BITMAP
80
C0
40
40
60
20
20
30
10
10
18
08
08
0C
04
ENDCHAR

STARTCHAR char93
ENCODING 93
SWIDTH 3 0
DWIDTH 11 0
BBX 6 15 3 0
BITMAP
FC
3C
24
3C
3C
3C
3C
3C
24
3C
3C
3C
24
3C
FC
ENDCHAR

STARTCHAR char94
ENCODING 94
SWIDTH 0 0
DWIDTH 0 0
BBX 7 4 -3 16
BITMAP
38
6C
9E
8E
ENDCHAR

STARTCHAR char95
ENCODING 95
SWIDTH 8 0
DWIDTH 12 0
BBX 12 1 0 -3
BITMAP
FFF0
ENDCHAR

STARTCHAR char96
ENCODING 96
SWIDTH 0 0
DWIDTH 0 0
BBX 4 4 -3 13
BITMAP
E0
60
30
10
ENDCHAR

STARTCHAR char97
ENCODING 97
SWIDTH 42 0
DWIDTH 20 0
BBX 18 12 3 0
BITMAP
004000
00C000
01E000
01E000
037000
049800
04F800
087C00
0FDC00
102600
383F00
FEFFC0
ENDCHAR

STARTCHAR char98
ENCODING 98
SWIDTH 42 0
DWIDTH 20 0
BBX 16 12 4 0
BITMAP
FFFC
1E3E
1E1E
1E1A
3E36
23CC
3E3C
3E1E
3E1F
2213
3E3E
7FFC
ENDCHAR

STARTCHAR char99
ENCODING 99
SWIDTH 29 0
DWIDTH 17 0
BBX 14 12 4 0
BITMAP
1FEC
3C14
780C
F804
9804
F800
F800
B800
7804
4C08
3C10
0FE0
ENDCHAR

STARTCHAR char100
ENCODING 100
SWIDTH 3 0
DWIDTH 21 0
BBX 18 12 4 0
BITMAP
3FFE00
1E0F00
1E0780
1E0780
1E07C0
1204C0
1E07C0
1E06C0
1E0780
120980
1E1F00
FFFC00
ENDCHAR

STARTCHAR char101
ENCODING 101
SWIDTH 38 0
DWIDTH 19 0
BBX 15 12 4 0
BITMAP
FFFE
260A
3E06
3E22
3E20
27E0
3E60
3E22
3E02
2606
3E1E
7FFE
ENDCHAR

STARTCHAR char102
ENCODING 102
SWIDTH 29 0
DWIDTH 17 0
BBX 15 12 4 0
BITMAP
7FFE
240A
3C06
3C22
3C60
27E0
3C60
3C20
3C00
2400
3C00
FF80
ENDCHAR

STARTCHAR char103
ENCODING 103
SWIDTH 42 0
DWIDTH 20 0
BBX 18 12 4 0
BITMAP
0FEC00
3C1C00
7C0400
7C0400
FC0000
8C0000
FC7FC0
BC1F00
5C1E00
241200
1E1E00
0FFF00
ENDCHAR

STARTCHAR char104
ENCODING 104
SWIDTH 11 0
DWIDTH 23 0
BBX 20 12 4 0
BITMAP
FFDFF0
120480
1E0780
1E0780
1E0780
13FC80
1E0780
1E0780
1E0780
120480
1E0780
FFDFF0
ENDCHAR

STARTCHAR char105
ENCODING 105
SWIDTH 8 0
DWIDTH 12 0
BBX 10 12 3 0
BITMAP
FFC0
3E00
3E00
3E00
3E00
2200
3E00
3E00
3E00
2200
3E00
FF80
ENDCHAR

STARTCHAR char106
ENCODING 106
SWIDTH 16 0
DWIDTH 14 0
BBX 12 12 3 0
BITMAP
0FF0
0780
0780
0780
0780
0480
0780
4780
E780
A480
C780
7F00
ENDCHAR

STARTCHAR char107
ENCODING 107
SWIDTH 11 0
DWIDTH 23 0
BBX 21 12 4 0
BITMAP
FFDFF0
1F0700
1F0400
1F0800
1F1000
137800
1FFC00
1F2E00
1E1F00
121180
1E0FC0
FFDFF8
ENDCHAR

STARTCHAR char108
ENCODING 108
SWIDTH 33 0
DWIDTH 18 0
BBX 15 12 4 0
BITMAP
3F80
3E00
3E00
3E00
3E00
2600
3E00
3E02
3A02
2606
3E1E
FFFE
ENDCHAR

STARTCHAR char109
ENCODING 109
SWIDTH 24 0
DWIDTH 26 0
BBX 22 12 5 0
BITMAP
3E01FC
2F02E0
1F03E0
1B85E0
27C5E0
244920
23E9E0
22F1E0
2171E0
20A120
70C1E0
FC47F8
ENDCHAR

STARTCHAR char110
ENCODING 110
SWIDTH 42 0
DWIDTH 20 0
BBX 16 12 4 0
BITMAP
FF1F
1382
1FC2
15E2
1372
109A
107E
102E
1016
100A
3006
FC02
ENDCHAR

STARTCHAR char111
ENCODING 111
SWIDTH 42 0
DWIDTH 20 0
BBX 17 12 4 0
BITMAP
0FF800
3E1E00
7C1F00
7C0F00
FC0F80
8C0980
FC0F80
BC0F80
5C0D00
240B00
1E1E00
07F800
ENDCHAR

STARTCHAR char112
ENCODING 112
SWIDTH 42 0
DWIDTH 20 0
BBX 17 12 4 0
BITMAP
3FFE00
220B00
3E0F80
3E0F80
3E0D80
220B00
3FFC00
3E0000
3E0000
220000
3E0000
FFC000
ENDCHAR

STARTCHAR char113
ENCODING 113
SWIDTH 42 0
DWIDTH 20 0
BBX 17 14 4 -2
BITMAP
0FF800
3E1E00
7C1F00
7C0F00
FC0F80
8C0980
FC0F80
BC6F80
5CDD00
252B80
1E3E80
07F780
000D00
000600
ENDCHAR

STARTCHAR char114
ENCODING 114
SWIDTH 42 0
DWIDTH 20 0
BBX 17 12 4 0
BITMAP
3FFC00
261700
3E1F00
3E1300
3EFF00
274800
3EF800
3E7800
3A5C00
262E00
3E3E00
FF9F80
ENDCHAR

STARTCHAR char115
ENCODING 115
SWIDTH 38 0
DWIDTH 19 0
BBX 15 12 4 0
BITMAP
3FEC
6014
E00C
FC04
8FF0
7FFC
3FFE
47E6
601A
7006
6C06
43FC
ENDCHAR

STARTCHAR char116
ENCODING 116
SWIDTH 33 0
DWIDTH 18 0
BBX 16 12 3 0
BITMAP
FFFF
E3C7
C3C3
C3C1
83C1
0240
03C0
03C0
03C0
0240
03C0
1FF8
ENDCHAR

STARTCHAR char117
ENCODING 117
SWIDTH 42 0
DWIDTH 20 0
BBX 17 12 4 0
BITMAP
FF8F80
3C0600
3C0400
3C0400
3C0400
240400
3C0400
3C0400
2C0400
140400
1E1C00
0FE000
ENDCHAR

STARTCHAR char118
ENCODING 118
SWIDTH 42 0
DWIDTH 20 0
BBX 18 12 3 0
BITMAP
FFCF80
1F0500
0F8200
0B8400
07C400
04C800
03E800
023000
01F000
00E000
00A000
004000
ENDCHAR

STARTCHAR char119
ENCODING 119
SWIDTH 33 0
DWIDTH 28 0
BBX 25 12 5 0
BITMAP
FFFFDF80
3E1F0600
1F0F8600
17178400
0F95C400
09924800
07E3E800
05C1F000
02416000
0180A000
0180C000
00804000
ENDCHAR

STARTCHAR char120
ENCODING 120
SWIDTH 42 0
DWIDTH 20 0
BBX 19 12 3 0
BITMAP
3F8F80
1F8600
0FCC00
05F800
02E000
013000
00F800
01BC00
025E00
042700
1C1F80
FF3FE0
ENDCHAR

STARTCHAR char121
ENCODING 121
SWIDTH 42 0
DWIDTH 20 0
BBX 16 12 5 0
BITMAP
FC1F
7C1C
3E10
2E10
1720
09E0
0F80
0780
0780
0480
0780
3FF0
ENDCHAR

STARTCHAR char122
ENCODING 122
SWIDTH 29 0
DWIDTH 17 0
BBX 13 12 4 0
BITMAP
FFF8
E138
C3F0
8360
06C0
0980
1F80
3B08
3E18
4428
FC78
FFF8
ENDCHAR

STARTCHAR char123
ENCODING 123
SWIDTH 34 0
DWIDTH 8 0
BBX 5 19 1 -4
BITMAP
38
70
60
60
20
20
20
60
40
80
60
60
60
60
60
60
60
70
38
ENDCHAR

STARTCHAR char124
ENCODING 124
SWIDTH 25 0
DWIDTH 6 0
BBX 2 15 2 0
BITMAP
C0
C0
C0
C0
C0
C0
C0
C0
C0
C0
C0
C0
C0
C0
C0
ENDCHAR

STARTCHAR char125
ENCODING 125
SWIDTH 34 0
DWIDTH 8 0
BBX 5 19 1 -4
BITMAP
C0
20
20
20
30
30
30
30
10
08
10
30
30
30
30
30
30
70
E0
ENDCHAR

STARTCHAR char126
ENCODING 126
SWIDTH 0 0
DWIDTH 0 0
BBX 12 4 -6 16
BITMAP
3810
7610
8FE0
83C0
ENDCHAR

STARTCHAR char128
ENCODING 128
SWIDTH 3 0
DWIDTH 21 0
BBX 19 15 3 0
BITMAP
01FC20
07C3E0
0D80E0
1F8060
1F0060
FFFF20
3F0000
3F0000
230000
3F0000
1F0020
170040
098080
07C300
01FC00
ENDCHAR

STARTCHAR char130
ENCODING 130
SWIDTH 30 0
DWIDTH 7 0
BBX 4 7 2 -3
BITMAP
60
D0
F0
D0
30
60
40
ENDCHAR

STARTCHAR char131
ENCODING 131
SWIDTH 0 0
DWIDTH 0 0
BBX 7 4 -3 16
BITMAP
38
6C
9E
8E
ENDCHAR

STARTCHAR char132
ENCODING 132
SWIDTH 3 0
DWIDTH 11 0
BBX 8 5 3 -2
BITMAP
E7
E7
A5
63
42
ENDCHAR

STARTCHAR char133
ENCODING 133
SWIDTH 7 0
DWIDTH 22 0
BBX 16 2 2 0
BITMAP
C183
C183
ENDCHAR

STARTCHAR char134
ENCODING 134
SWIDTH 16 0
DWIDTH 14 0
BBX 11 10 3 3
BITMAP
1F00
0E00
8620
C460
A4A0
FFE0
C460
8420
0F00
1F00
ENDCHAR

STARTCHAR char136
ENCODING 136
SWIDTH 0 0
DWIDTH 0 0
BBX 7 4 -3 13
BITMAP
38
5C
5C
8E
ENDCHAR

STARTCHAR char139
ENCODING 139
SWIDTH 30 0
DWIDTH 7 0
BBX 3 7 2 2
BITMAP
20
60
C0
80
E0
60
20
ENDCHAR

STARTCHAR char140
ENCODING 140
SWIDTH 24 0
DWIDTH 36 0
BBX 30 15 7 0
BITMAP
03FFFFFC
0D03F05C
3A03F02C
2602301C
7E03F08C
FE03F084
FE03F380
86023F80
FE03F180
FE03F080
7E03F004
4E03F01C
3202301C
0F03F07C
03FFFFFC
ENDCHAR

STARTCHAR char145
ENCODING 145
SWIDTH 25 0
DWIDTH 6 0
BBX 4 6 2 9
BITMAP
60
C0
A0
F0
B0
60
ENDCHAR

STARTCHAR char146
ENCODING 146
SWIDTH 25 0
DWIDTH 6 0
BBX 3 6 2 9
BITMAP
60
E0
A0
60
40
40
ENDCHAR

STARTCHAR char147
ENCODING 147
SWIDTH 3 0
DWIDTH 11 0
BBX 8 6 3 9
BITMAP
43
C4
AB
EF
A5
43
ENDCHAR

STARTCHAR char148
ENCODING 148
SWIDTH 3 0
DWIDTH 11 0
BBX 8 6 3 9
BITMAP
E7
EB
AD
63
43
86
ENDCHAR

STARTCHAR char149
ENCODING 149
SWIDTH 30 0
DWIDTH 7 0
BBX 5 5 1 5
BITMAP
70
F8
F8
F8
70
ENDCHAR

STARTCHAR char150
ENCODING 150
SWIDTH 3 0
DWIDTH 21 0
BBX 17 1 4 6
BITMAP
FFFF80
ENDCHAR

STARTCHAR char151
ENCODING 151
SWIDTH 20 0
DWIDTH 15 0
BBX 13 1 3 6
BITMAP
FFF8
ENDCHAR

STARTCHAR char152
ENCODING 152
SWIDTH 0 0
DWIDTH 0 0
BBX 10 4 -5 13
BITMAP
3040
6C40
9F80
8300
ENDCHAR

STARTCHAR char153
ENCODING 153
SWIDTH 2 0
DWIDTH 31 0
BBX 26 13 6 9
BITMAP
FFDE01C0
CCC60380
8C470380
8C470780
0C058580
0C058580
0C058980
0C04C980
0C04D980
0C047180
0C047180
0C042180
3F1E27C0
ENDCHAR

STARTCHAR char155
ENCODING 155
SWIDTH 30 0
DWIDTH 7 0
BBX 3 7 2 2
BITMAP
80
C0
60
20
E0
80
80
ENDCHAR

STARTCHAR char156
ENCODING 156
SWIDTH 41 0
DWIDTH 30 0
BBX 25 12 6 0
BITMAP
0FF3FF00
3C0D0300
7C0F0100
780F0900
F80F1800
9809F800
F80F1800
B80F0880
780F0180
4C090380
3C0F0780
0FFFFF80
ENDCHAR

STARTCHAR char159
ENCODING 159
SWIDTH 16 0
DWIDTH 24 0
BBX 21 20 4 0
BITMAP
008400
03DE00
03DA00
019C00
000000
FFE7F8
2F81F0
1780C0
08C0C0
07E180
05E100
02F200
011400
01F800
00F800
00F800
00F800
009800
00F800
07FF80
ENDCHAR

STARTCHAR char160
ENCODING 160
SWIDTH 38 0
DWIDTH 19 0
BBX 0 0 0 0
BITMAP
ENDCHAR

STARTCHAR char161
ENCODING 161
SWIDTH 34 0
DWIDTH 8 0
BBX 5 15 2 0
BITMAP
70
F8
98
F8
00
20
20
30
70
70
F8
98
F8
98
70
ENDCHAR

STARTCHAR char162
ENCODING 162
SWIDTH 29 0
DWIDTH 17 0
BBX 14 17 4 -2
BITMAP
0080
0080
0380
1EEC
3C94
7C8C
F884
9884
F884
F880
B880
7884
4C88
3C90
0FE0
0080
0080
ENDCHAR

STARTCHAR char163
ENCODING 163
SWIDTH 3 0
DWIDTH 21 0
BBX 18 15 4 0
BITMAP
07FF00
0F8180
0F07C0
110440
1F07C0
1F0380
1F0000
7FFC00
110000
1F0040
1F0040
1F01C0
1103C0
1F04C0
FFFFC0
ENDCHAR

STARTCHAR char164
ENCODING 164
SWIDTH 0 0
DWIDTH 0 0
BBX 5 4 -1 16
BITMAP
70
A0
C0
80
ENDCHAR

STARTCHAR char165
ENCODING 165
SWIDTH 0 0
DWIDTH 0 0
BBX 8 4 -4 16
BITMAP
71
5A
3A
3C
ENDCHAR

STARTCHAR char167
ENCODING 167
SWIDTH 33 0
DWIDTH 18 0
BBX 14 22 4 -6
BITMAP
0008
1F98
6078
6018
7008
FF00
7FF0
5FF8
383C
27C4
603C
B00C
FF8C
41F8
7FF8
3C1C
43EC
4014
600C
500C
6C38
43C0
ENDCHAR

STARTCHAR char168
ENCODING 168
SWIDTH 0 0
DWIDTH 0 0
BBX 8 3 -4 13
BITMAP
67
65
42
ENDCHAR

STARTCHAR char169
ENCODING 169
SWIDTH 33 0
DWIDTH 28 0
BBX 22 21 6 0
BITMAP
01FE00
0701C0
0C0060
180030
307D10
60C708
418308
C30104
870104
860004
860004
860004
860004
C30004
438108
61C608
307C10
180030
0C0060
0701C0
01FE00
ENDCHAR

STARTCHAR char170
ENCODING 170
SWIDTH 0 0
DWIDTH 0 0
BBX 8 4 -4 16
BITMAP
42
AD
EB
E7
ENDCHAR

STARTCHAR char171
ENCODING 171
SWIDTH 3 0
DWIDTH 11 0
BBX 7 7 3 3
BITMAP
22
44
88
90
88
44
22
ENDCHAR

STARTCHAR char172
ENCODING 172
SWIDTH 20 0
DWIDTH 25 0
BBX 21 9 5 0
BITMAP
FFFFF8
FFFFF8
000018
000018
000018
000018
000018
000018
000018
ENDCHAR

STARTCHAR char174
ENCODING 174
SWIDTH 33 0
DWIDTH 28 0
BBX 22 21 6 0
BITMAP
01FE00
070380
0C0060
180030
33FC10
60C708
40C308
40C30C
80C304
80CE04
80F804
80DC04
80CC04
C0C604
40C308
63E3C8
200018
100030
0C0060
0701C0
01FF00
ENDCHAR

STARTCHAR char176
ENCODING 176
SWIDTH 16 0
DWIDTH 14 0
BBX 9 10 4 12
BITMAP
1E00
6300
4180
C080
8080
8080
8080
4180
6300
1E00
ENDCHAR

STARTCHAR char177
ENCODING 177
SWIDTH 38 0
DWIDTH 19 0
BBX 16 21 4 0
BITMAP
0180
0180
0180
0180
0180
0180
0180
0180
FFFF
FFFF
0180
0180
0180
0180
0180
0180
0180
0000
0000
FFFF
FFFF
ENDCHAR

STARTCHAR char180
ENCODING 180
SWIDTH 0 0
DWIDTH 0 0
BBX 4 4 -1 13
BITMAP
70
60
40
80
ENDCHAR

STARTCHAR char182
ENCODING 182
SWIDTH 20 0
DWIDTH 15 0
BBX 9 18 2 -3
BITMAP
3F80
7100
F100
F100
F100
F100
F100
7100
1100
1100
1100
1100
1100
1100
1100
1100
1100
1100
ENDCHAR

STARTCHAR char183
ENCODING 183
SWIDTH 25 0
DWIDTH 6 0
BBX 2 2 2 5
BITMAP
C0
C0
ENDCHAR

STARTCHAR char184
ENCODING 184
SWIDTH 0 0
DWIDTH 0 0
BBX 3 5 -1 -5
BITMAP
E0
E0
A0
60
80
ENDCHAR

STARTCHAR char186
ENCODING 186
SWIDTH 0 0
DWIDTH 0 0
BBX 12 4 -6 16
BITMAP
3810
7610
8FE0
83C0
ENDCHAR

STARTCHAR char187
ENCODING 187
SWIDTH 3 0
DWIDTH 11 0
BBX 8 7 3 3
BITMAP
88
44
22
11
22
44
98
ENDCHAR

STARTCHAR char191
ENCODING 191
SWIDTH 16 0
DWIDTH 14 0
BBX 11 15 3 0
BITMAP
0700
0F00
0980
0700
0000
0200
1E00
3E00
6600
9FC0
FBE0
B220
61E0
7040
1F80
ENDCHAR

STARTCHAR char192
ENCODING 192
SWIDTH 16 0
DWIDTH 24 0
BBX 21 20 4 0
BITMAP
01E000
00A000
006000
002000
000000
002000
007000
007000
00F800
009C00
01FC00
017E00
025E00
042300
043F00
0FFF80
081780
1808C0
380FE0
FF3FF8
ENDCHAR

STARTCHAR char193
ENCODING 193
SWIDTH 16 0
DWIDTH 24 0
BBX 21 20 4 0
BITMAP
003C00
002800
003000
002000
000000
002000
007000
007000
00F800
009C00
01FC00
017E00
025E00
042300
043F00
0FFF80
081780
1808C0
380FE0
FF3FF8
ENDCHAR

STARTCHAR char194
ENCODING 194
SWIDTH 16 0
DWIDTH 24 0
BBX 21 20 4 0
BITMAP
007800
006C00
009C00
011E00
000000
002000
007000
007000
00F800
009C00
01FC00
017E00
025E00
022300
043F00
07EF80
081780
1808C0
380FE0
FF3FF8
ENDCHAR

STARTCHAR char195
ENCODING 195
SWIDTH 16 0
DWIDTH 24 0
BBX 21 20 4 0
BITMAP
008000
036100
04FF00
041C00
000000
002000
007000
007000
00F800
009800
01FC00
017E00
025E00
022300
043F00
07EF80
081780
1808C0
380FE0
FF3FF8
ENDCHAR

STARTCHAR char196
ENCODING 196
SWIDTH 16 0
DWIDTH 24 0
BBX 21 19 4 0
BITMAP
01CE00
01DA00
008C00
000000
002000
007000
007000
00F800
009C00
017C00
015E00
023E00
022300
043F00
0FEF80
081780
1808C0
380FE0
FF3FF8
ENDCHAR

STARTCHAR char197
ENCODING 197
SWIDTH 16 0
DWIDTH 24 0
BBX 21 20 4 0
BITMAP
007000
008800
008800
005800
007000
002000
007000
007000
00F800
00DC00
01BC00
017E00
025E00
043300
042F00
07FF80
081780
1808C0
2C0FE0
FF3FF8
ENDCHAR

STARTCHAR char198
ENCODING 198
SWIDTH 15 0
DWIDTH 34 0
BBX 29 15 6 0
BITMAP
003FFFF8
000FE1B8
0017E058
00246038
0027E118
0047E108
0087E700
01047F00
0207E300
0207E100
07FFE018
0807E038
18046058
2807E0F8
FF3FFFF8
ENDCHAR

STARTCHAR char199
ENCODING 199
SWIDTH 3 0
DWIDTH 21 0
BBX 17 20 5 -5
BITMAP
07F880
1F0780
360380
7E0180
7C0180
FC0080
FC0000
FC0000
8C0000
FC0000
7C0080
5E0080
260100
1F0600
0FD800
01E000
01E000
00A000
00C000
010000
ENDCHAR

STARTCHAR char200
ENCODING 200
SWIDTH 11 0
DWIDTH 23 0
BBX 19 20 4 0
BITMAP
01C000
00C000
00E000
002000
000000
7FFFE0
1F82E0
1F8160
1180E0
1F8460
1F8420
1F8C00
11FC00
1F8C00
1F8400
1F8020
1F8060
1180E0
1F83E0
FFFFE0
ENDCHAR

STARTCHAR char201
ENCODING 201
SWIDTH 11 0
DWIDTH 23 0
BBX 19 20 4 0
BITMAP
003800
005000
006000
004000
000000
7FFFE0
1F82E0
1F8160
1180E0
1F8460
1F8420
1F8C00
11FC00
1F8C00
1F8400
1F8020
1F8060
1180E0
1F83E0
FFFFE0
ENDCHAR

STARTCHAR char202
ENCODING 202
SWIDTH 11 0
DWIDTH 23 0
BBX 19 20 4 0
BITMAP
007800
00C800
013C00
011C00
000000
7FFFE0
1F82E0
1F8160
1180E0
1F8460
1F8420
1F8C00
11FC00
1F8C00
1F8400
1F8020
1F8060
1180E0
1F83E0
FFFFE0
ENDCHAR

STARTCHAR char203
ENCODING 203
SWIDTH 11 0
DWIDTH 23 0
BBX 18 20 5 0
BITMAP
021000
052800
073800
071800
000000
FFFFC0
2F06C0
1F01C0
1300C0
1F08C0
1F0840
1F1800
1FF800
131800
1F0800
1F0040
1F01C0
1301C0
1F06C0
FFFFC0
ENDCHAR

STARTCHAR char204
ENCODING 204
SWIDTH 16 0
DWIDTH 14 0
BBX 12 20 3 0
BITMAP
3C00
1C00
0E00
0200
0000
FFF0
1F80
1F80
1180
1F80
1F80
1F80
1180
1F80
1F80
1F80
1F80
1180
1F80
FFF0
ENDCHAR

STARTCHAR char205
ENCODING 205
SWIDTH 16 0
DWIDTH 14 0
BBX 12 20 3 0
BITMAP
0380
0500
0600
0400
0000
FFF0
1F80
1F80
1180
1F80
1F80
1F80
1180
1F80
1F80
1F80
1F80
1180
1F80
FFF0
ENDCHAR

STARTCHAR char206
ENCODING 206
SWIDTH 16 0
DWIDTH 14 0
BBX 12 20 3 0
BITMAP
0780
0C80
13C0
11C0
0000
FFF0
1F80
1F80
1180
1F80
1F80
1F80
1180
1F80
1F80
1F80
1F80
1180
1F80
FFF0
ENDCHAR

STARTCHAR char207
ENCODING 207
SWIDTH 16 0
DWIDTH 14 0
BBX 12 20 3 0
BITMAP
1080
2940
79C0
31C0
0000
FFF0
1F80
1F80
1180
1F80
1F80
1F80
1180
1F80
1F80
1F80
1F80
1180
1F80
FFF0
ENDCHAR

STARTCHAR char209
ENCODING 209
SWIDTH 16 0
DWIDTH 24 0
BBX 22 20 4 0
BITMAP
008000
03F080
047F00
041E00
000000
7FC3FC
3FE060
09F060
0E3820
09FC20
08FE20
085F20
082FA0
0811E0
080FE0
0805E0
0802E0
080120
1C00E0
FF0020
ENDCHAR

STARTCHAR char210
ENCODING 210
SWIDTH 20 0
DWIDTH 25 0
BBX 21 20 5 0
BITMAP
01E000
00A000
006000
002000
000000
07FF00
1F87C0
3304E0
7E03F0
7E03F0
FE03F8
FE03F8
860218
FE03F8
7E03F8
5E03B0
2E03F0
130260
0F07C0
03FE00
ENDCHAR

STARTCHAR char211
ENCODING 211
SWIDTH 20 0
DWIDTH 25 0
BBX 21 20 5 0
BITMAP
003C00
002800
003000
002000
000000
07FF00
1F87C0
3304E0
7E03F0
7E03F0
FE03F8
FE03F8
860218
FE03F8
7E03F8
5E03B0
2E03F0
130260
0F07C0
03FE00
ENDCHAR

STARTCHAR char212
ENCODING 212
SWIDTH 20 0
DWIDTH 25 0
BBX 21 20 5 0
BITMAP
007800
004C00
00BC00
011E00
000000
07FE00
0D0580
1F03C0
220260
7E03F0
7E03F8
FE03F8
860218
FE03F8
7E03F8
5E03B0
2E03F0
130260
0F07C0
03FE00
ENDCHAR

STARTCHAR char213
ENCODING 213
SWIDTH 20 0
DWIDTH 25 0
BBX 21 20 5 0
BITMAP
018000
036100
04FE00
041C00
000000
07FE00
0D0580
1F03C0
220260
7E03F0
7E03F8
FE03F8
860218
FE03F8
7E03F8
5E03F0
2E03B0
130260
0F07C0
03FE00
ENDCHAR

STARTCHAR char214
ENCODING 214
SWIDTH 20 0
DWIDTH 25 0
BBX 21 19 5 0
BITMAP
038C00
035A00
018C00
000000
07FF00
1F8FC0
3304E0
7F03F0
7E03F0
FE03F8
FE03F8
FE03D8
860238
FE03F8
5E03B0
2E03F0
130260
0F07C0
03FF00
ENDCHAR

STARTCHAR char216
ENCODING 216
SWIDTH 20 0
DWIDTH 25 0
BBX 21 16 5 -1
BITMAP
07FE40
1F8780
3304E0
7E03F0
7E07F0
FE0BF8
FE33F8
FE63D8
86C238
7F83F8
5E03F0
2E03B0
130260
1F07C0
61FF00
400000
ENDCHAR

STARTCHAR char217
ENCODING 217
SWIDTH 16 0
DWIDTH 24 0
BBX 21 20 4 0
BITMAP
01E000
00A000
006000
002000
000000
FFF3F8
1F80E0
1F8040
118040
1F8040
1F8040
1F8040
118040
1F8040
1F8040
1F8040
118040
0F8080
078380
01FC00
ENDCHAR

STARTCHAR char218
ENCODING 218
SWIDTH 16 0
DWIDTH 24 0
BBX 21 20 4 0
BITMAP
003C00
002800
003000
002000
000000
FFF3F8
1780E0
1F80C0
118040
1F8040
1F8040
1F8040
118040
1F8040
1F8040
1F8040
118040
0F8080
078380
01FC00
ENDCHAR

STARTCHAR char219
ENCODING 219
SWIDTH 16 0
DWIDTH 24 0
BBX 21 20 4 0
BITMAP
007800
006C00
009C00
019E00
000000
FFF3F8
1F80E0
1F8040
118040
1F8040
1F8040
1F8040
118040
1F8040
1F8040
1F8040
118040
0F8080
078380
01FC00
ENDCHAR

STARTCHAR char220
ENCODING 220
SWIDTH 16 0
DWIDTH 24 0
BBX 21 20 4 0
BITMAP
000200
00E500
00E700
00C700
000000
FFF3F8
1F80E0
1F8040
118040
1F8040
1F8040
1F8040
118040
1F8040
1F8040
1F8040
118040
0F8080
078380
01FC00
ENDCHAR

STARTCHAR char223
ENCODING 223
SWIDTH 2 0
DWIDTH 31 0
BBX 31 12 3 0
BITMAP
3FF83FEC
40386014
E008E00C
FC08F804
BFE08FE0
4FF8747C
3FFC3FFC
4FCE4FCE
40324036
600C600A
F80C780C
47F847F8
ENDCHAR

STARTCHAR char224
ENCODING 224
SWIDTH 42 0
DWIDTH 20 0
BBX 18 17 3 0
BITMAP
038000
014000
00C000
004000
004000
00C000
00E000
01E000
02F000
037000
049800
04F800
087C00
1FDE00
102600
383F00
FEFFC0
ENDCHAR

STARTCHAR char225
ENCODING 225
SWIDTH 42 0
DWIDTH 20 0
BBX 18 17 3 0
BITMAP
007000
006000
004000
004000
004000
00C000
00E000
01E000
02F000
037000
049800
04F800
087C00
1FDE00
102600
383F00
FEFFC0
ENDCHAR

STARTCHAR char226
ENCODING 226
SWIDTH 42 0
DWIDTH 20 0
BBX 18 17 3 0
BITMAP
00E000
017000
017000
013800
004000
00C000
00E000
01E000
02F000
037000
049800
04F800
087C00
1FDE00
102600
383F00
FEFFC0
ENDCHAR

STARTCHAR char227
ENCODING 227
SWIDTH 42 0
DWIDTH 20 0
BBX 18 17 3 0
BITMAP
030400
07C400
0CF800
083000
004000
00C000
00E000
01E000
02F000
037000
049800
04F800
087C00
1FDE00
102600
383F00
FEFFC0
ENDCHAR

STARTCHAR char228
ENCODING 228
SWIDTH 42 0
DWIDTH 20 0
BBX 18 17 3 0
BITMAP
021000
03A800
03B800
031000
004000
00C000
00E000
01E000
02F000
037000
049800
04F800
087C00
1FDC00
102600
383F00
FE7FC0
ENDCHAR

STARTCHAR char229
ENCODING 229
SWIDTH 42 0
DWIDTH 20 0
BBX 18 17 3 0
BITMAP
00E000
00A000
00A000
00C000
004000
00C000
00E000
01E000
02F000
057000
049800
04F800
087C00
0FDE00
102600
383F00
FEFFC0
ENDCHAR

STARTCHAR char230
ENCODING 230
SWIDTH 37 0
DWIDTH 29 0
BBX 24 12 5 0
BITMAP
001FFF
003105
005F03
009F11
011D30
0213F0
041F30
041F11
0FFD01
181303
301F0F
FE7FFF
ENDCHAR

STARTCHAR char231
ENCODING 231
SWIDTH 29 0
DWIDTH 17 0
BBX 14 18 4 -5
BITMAP
07C4
1E3C
3C14
780C
F804
F804
9800
F800
B800
7804
4C08
3C10
0FE0
0100
0380
0380
0180
0200
ENDCHAR

STARTCHAR char232
ENCODING 232
SWIDTH 38 0
DWIDTH 19 0
BBX 15 17 4 0
BITMAP
0700
0300
0100
0080
0000
FFFE
260A
3E06
3E22
3E60
27E0
3E60
3E22
3E02
2606
3E1E
7FFE
ENDCHAR

STARTCHAR char233
ENCODING 233
SWIDTH 38 0
DWIDTH 19 0
BBX 15 17 4 0
BITMAP
00C0
0140
0180
0100
0000
FFFE
260A
3E06
3E22
3E60
27E0
3E60
3E22
3E02
2606
3E1E
7FFE
ENDCHAR

STARTCHAR char234
ENCODING 234
SWIDTH 38 0
DWIDTH 19 0
BBX 15 17 4 0
BITMAP
01C0
0340
02E0
04E0
0000
FFFE
260A
3E06
3E22
3E60
27E0
3E60
3E22
3E02
2606
3E0E
FFFE
ENDCHAR

STARTCHAR char235
ENCODING 235
SWIDTH 38 0
DWIDTH 19 0
BBX 15 17 4 0
BITMAP
0400
0AE0
0EE0
0440
0000
FFFE
260A
3E06
3E22
3E20
27E0
3E60
3E22
3E02
2606
3E0E
FFFE
ENDCHAR

STARTCHAR char236
ENCODING 236
SWIDTH 8 0
DWIDTH 12 0
BBX 10 17 3 0
BITMAP
3800
1800
0800
0800
0000
FF80
2400
3C00
3C00
3C00
2400
3C00
3C00
3C00
2400
3C00
FF80
ENDCHAR

STARTCHAR char237
ENCODING 237
SWIDTH 8 0
DWIDTH 12 0
BBX 10 17 3 0
BITMAP
1800
1800
3000
2000
0000
FF80
3C00
3C00
3C00
3C00
2400
3C00
3C00
3C00
2400
3C00
FF80
ENDCHAR

STARTCHAR char238
ENCODING 238
SWIDTH 8 0
DWIDTH 12 0
BBX 10 17 3 0
BITMAP
1C00
3400
4E00
4E00
0000
FF80
2400
3C00
3C00
3C00
2400
3C00
3C00
3C00
2400
3C00
FF80
ENDCHAR

STARTCHAR char239
ENCODING 239
SWIDTH 8 0
DWIDTH 12 0
BBX 10 17 3 0
BITMAP
2200
7500
7700
2200
0000
FFC0
2200
3E00
3E00
3E00
2200
3E00
3E00
3E00
2200
3E00
FF80
ENDCHAR

STARTCHAR char241
ENCODING 241
SWIDTH 42 0
DWIDTH 20 0
BBX 16 17 4 0
BITMAP
0100
07C8
08F8
0870
0000
FF1F
1382
1FC2
14E2
1372
109A
107E
102E
1016
100A
3006
FC02
ENDCHAR

STARTCHAR char242
ENCODING 242
SWIDTH 42 0
DWIDTH 20 0
BBX 17 17 4 0
BITMAP
038000
018000
008000
004000
000000
0FF800
3E1E00
7C1F00
7C0F00
FC0F80
8C0980
FC0F80
BC0F80
5C0D00
240B00
1E1E00
07F800
ENDCHAR

STARTCHAR char243
ENCODING 243
SWIDTH 42 0
DWIDTH 20 0
BBX 17 17 4 0
BITMAP
007000
00A000
00C000
008000
000000
0FF800
3E1E00
7C1F00
7C0F00
FC0F80
8C0980
FC0F80
BC0F80
5C0D00
240B00
1E1E00
07F800
ENDCHAR

STARTCHAR char244
ENCODING 244
SWIDTH 42 0
DWIDTH 20 0
BBX 17 17 4 0
BITMAP
00E000
01A000
017000
027000
000000
0FF800
3E1E00
7C1F00
7C0F00
FC0F80
8C0980
FC0F80
BC0F80
5C0D00
240B00
1E1E00
07F800
ENDCHAR

STARTCHAR char245
ENCODING 245
SWIDTH 42 0
DWIDTH 20 0
BBX 17 17 4 0
BITMAP
010000
07C400
08F800
087000
000000
0FF800
3E1E00
7C1F00
7C0F00
FC0F80
8C0980
FC0F80
BC0F80
5C0D00
240B00
1E1E00
07F800
ENDCHAR

STARTCHAR char246
ENCODING 246
SWIDTH 42 0
DWIDTH 20 0
BBX 17 17 4 0
BITMAP
023000
053800
073800
021000
03E000
0E3C00
3E1E00
7C1F00
7C0F00
FC0F80
8C0980
FC0F80
BC0F80
5C0D00
241B00
1E1E00
07F800
ENDCHAR

STARTCHAR char247
ENCODING 247
SWIDTH 38 0
DWIDTH 19 0
BBX 16 13 4 2
BITMAP
0180
03C0
03C0
0180
0000
0000
FFFF
FFFF
0000
0180
03C0
03C0
0180
ENDCHAR

STARTCHAR char248
ENCODING 248
SWIDTH 42 0
DWIDTH 20 0
BBX 17 13 4 -1
BITMAP
0FFA00
1E1E00
7C1F00
7C2F00
FC4F80
8C8980
FD0F80
7E0F80
5C0D00
240B00
1E1E00
E7F800
400000
ENDCHAR

STARTCHAR char249
ENCODING 249
SWIDTH 42 0
DWIDTH 20 0
BBX 17 17 4 0
BITMAP
070000
028000
018000
008000
000000
FF8F80
3C0600
3C0400
3C0400
3C0400
240400
3C0400
3C0400
2C0400
140400
1E1C00
0FE000
ENDCHAR

STARTCHAR char250
ENCODING 250
SWIDTH 42 0
DWIDTH 20 0
BBX 17 17 4 0
BITMAP
00E000
00C000
008000
008000
000000
FF8F80
3C0600
3C0400
3C0400
3C0400
240400
3C0400
3C0400
2C0400
140400
1E1C00
0FE000
ENDCHAR

STARTCHAR char251
ENCODING 251
SWIDTH 42 0
DWIDTH 20 0
BBX 17 17 4 0
BITMAP
01C000
02E000
02E000
047000
000000
FF8F80
3C0600
3C0400
3C0400
3C0400
240400
3C0400
3C0400
2C0400
140400
1E1C00
0FE000
ENDCHAR

STARTCHAR char252
ENCODING 252
SWIDTH 42 0
DWIDTH 20 0
BBX 17 16 4 0
BITMAP
03B800
03B800
011000
000000
FF8F80
3E0600
3E0400
3E0400
3E0400
260400
3E0400
3E0400
2E0400
160400
1E0C00
0FF000
ENDCHAR

STARTCHAR char255
ENCODING 255
SWIDTH 42 0
DWIDTH 20 0
BBX 16 17 5 0
BITMAP
0440
0EC0
0F60
04C0
0000
FE1F
4E1C
3E10
2E10
1720
09E0
0F80
0780
0780
0480
07C0
3FF0
ENDCHAR
ENDFONT
